<svg id="logo" xmlns="http://www.w3.org/2000/svg" xmlns:xlink="http://www.w3.org/1999/xlink" width="221.438" height="85" viewBox="0 0 221.438 85">
  <defs>
    <radialGradient id="radial-gradient" cx="-5.877" cy="-2.653" r="15.001" gradientTransform="translate(-0.222) scale(1.443 1)" gradientUnits="objectBoundingBox">
      <stop offset="0.389" stop-color="#af7235"/>
      <stop offset="0.946" stop-color="#441417"/>
    </radialGradient>
    <radialGradient id="radial-gradient-2" cx="-2.573" cy="-2.487" r="16.176" gradientTransform="translate(0.233) scale(0.534 1)" xlink:href="#radial-gradient"/>
    <radialGradient id="radial-gradient-3" cx="-6.706" cy="-1.536" r="6.424" gradientTransform="translate(-0.487) scale(1.975 1)" xlink:href="#radial-gradient"/>
    <radialGradient id="radial-gradient-4" cx="-4.946" cy="-2.411" r="13.124" gradientTransform="translate(-0.42) scale(1.841 1)" xlink:href="#radial-gradient"/>
    <radialGradient id="radial-gradient-5" cx="-3.661" cy="-1.492" r="10.067" gradientTransform="translate(0.095) scale(0.809 1)" xlink:href="#radial-gradient"/>
    <radialGradient id="radial-gradient-6" cx="-2.746" cy="-2.456" r="9.244" gradientTransform="translate(-0.245) scale(1.49 1)" xlink:href="#radial-gradient"/>
    <radialGradient id="radial-gradient-7" cx="-3.112" cy="-2.516" r="10.484" gradientTransform="translate(-0.034) scale(1.068 1)" xlink:href="#radial-gradient"/>
    <radialGradient id="radial-gradient-8" cx="-2.702" cy="-1.861" r="9.761" gradientTransform="translate(0.114) scale(0.771 1)" xlink:href="#radial-gradient"/>
    <radialGradient id="radial-gradient-9" cx="-2.8" cy="-2.911" r="23.242" gradientTransform="translate(0.329) scale(0.342 1)" xlink:href="#radial-gradient"/>
    <radialGradient id="radial-gradient-10" cx="-2.597" cy="-2.5" r="7.767" gradientTransform="translate(-0.048) scale(1.095 1)" xlink:href="#radial-gradient"/>
    <radialGradient id="radial-gradient-11" cx="-3.097" cy="-1.94" r="7.153" gradientTransform="translate(-0.025) scale(1.05 1)" xlink:href="#radial-gradient"/>
    <radialGradient id="radial-gradient-12" cx="-3.93" cy="-3.907" r="18.43" gradientTransform="translate(-0.209) scale(1.417 1)" xlink:href="#radial-gradient"/>
    <radialGradient id="radial-gradient-13" cx="0.039" cy="0.057" r="0.766" gradientTransform="translate(-0.031) scale(1.062 1)" xlink:href="#radial-gradient"/>
    <radialGradient id="radial-gradient-14" cx="-2.345" cy="-2.254" r="8.007" gradientTransform="translate(-0.669) scale(2.339 1)" xlink:href="#radial-gradient"/>
    <radialGradient id="radial-gradient-15" cx="-1.122" cy="-2.792" r="7.013" gradientTransform="translate(-0.104) scale(1.208 1)" xlink:href="#radial-gradient"/>
    <radialGradient id="radial-gradient-16" cx="-1.727" cy="-2.619" r="7.262" gradientTransform="translate(-0.066) scale(1.132 1)" xlink:href="#radial-gradient"/>
  </defs>
  <g id="Group_2480" data-name="Group 2480" transform="translate(45.734 56.142)">
    <path id="Path_6115" data-name="Path 6115" d="M290.171,662.32l-.9-.2-1.039-.086a5.089,5.089,0,0,0-2.037.394,4.461,4.461,0,0,0-1.58,1.142,5.183,5.183,0,0,0-1.031,1.808,7.483,7.483,0,0,0-.354,2.418,7.778,7.778,0,0,0,.362,2.465,5,5,0,0,0,1.031,1.811,4.279,4.279,0,0,0,1.586,1.1,5.446,5.446,0,0,0,2,.363l1.075-.081.893-.238.788-.3.741-.352v-1.921h-.279l-.491.431-.675.448-.924.376a4.024,4.024,0,0,1-1.12.148,2.979,2.979,0,0,1-1.246-.264,2.8,2.8,0,0,1-1.02-.777,4.039,4.039,0,0,1-.713-1.318,6.014,6.014,0,0,1-.261-1.878,6.356,6.356,0,0,1,.249-1.85,3.788,3.788,0,0,1,.692-1.344,2.919,2.919,0,0,1,1.039-.807,3,3,0,0,1,1.26-.27,3.93,3.93,0,0,1,1.092.135l.882.362.7.473.52.447h.289V663l-.8-.4Zm1.279,8.435v.017c-.019.017-.043.043-.064.063Z" transform="translate(-283.227 -644.728)" fill="#441417"/>
    <path id="Path_6116" data-name="Path 6116" d="M305.9,667.742a3.484,3.484,0,0,0-2.73,1.176,4.761,4.761,0,0,0-1.033,3.253,4.868,4.868,0,0,0,1,3.223,3.429,3.429,0,0,0,2.76,1.2,3.472,3.472,0,0,0,2.733-1.162,5.7,5.7,0,0,0,0-6.519A3.463,3.463,0,0,0,305.9,667.742Zm1.539,6.691a1.984,1.984,0,0,1-3.081-.014,4.9,4.9,0,0,1,0-4.518,2.008,2.008,0,0,1,3.082,0,4.93,4.93,0,0,1,0,4.531Z" transform="translate(-293.257 -647.756)" fill="#441417"/>
    <path id="Path_6117" data-name="Path 6117" d="M325.54,668.241v6.142a4.756,4.756,0,0,1-.981.653,2.349,2.349,0,0,1-1.014.27,1.782,1.782,0,0,1-.778-.132.935.935,0,0,1-.406-.408,1.936,1.936,0,0,1-.2-.7L322.117,673v-4.761H320.5v5.412a4.5,4.5,0,0,0,.2,1.438,2.67,2.67,0,0,0,.568,1,2.2,2.2,0,0,0,.868.588,3.033,3.033,0,0,0,1.05.182,2.881,2.881,0,0,0,1.326-.3,5.882,5.882,0,0,0,1.023-.715v.783h1.611v-8.385H325.54Z" transform="translate(-302.994 -648.02)" fill="#441417"/>
    <path id="Path_6118" data-name="Path 6118" d="M342.305,667.742a2.98,2.98,0,0,0-1.319.306,5.637,5.637,0,0,0-1.035.713v-.785h-1.61v8.386h1.61v-6.139a5.271,5.271,0,0,1,1-.666,2.216,2.216,0,0,1,1-.26,1.817,1.817,0,0,1,.767.135.952.952,0,0,1,.411.4,2.088,2.088,0,0,1,.2.729l.054,1.036v4.76h1.61v-5.409a3.557,3.557,0,0,0-.708-2.372A2.479,2.479,0,0,0,342.305,667.742Z" transform="translate(-312.455 -647.756)" fill="#441417"/>
    <path id="Path_6119" data-name="Path 6119" d="M361.285,674.152h-.253l-.037.033a3.989,3.989,0,0,1-1.041.693,2.984,2.984,0,0,1-1.231.265,1.944,1.944,0,0,1-1.642-.756,4.234,4.234,0,0,1,.02-4.364,1.956,1.956,0,0,1,1.621-.756l.715.1.65.245.548.317.4.306.048,0h.2v-1.744l-1.2-.472a4.572,4.572,0,0,0-1.333-.2,4.224,4.224,0,0,0-1.594.3,3.26,3.26,0,0,0-1.25.851,3.984,3.984,0,0,0-.792,1.351,5.343,5.343,0,0,0-.3,1.894,5.818,5.818,0,0,0,.286,1.911,3.749,3.749,0,0,0,.807,1.372,3.328,3.328,0,0,0,1.256.812,4.617,4.617,0,0,0,1.588.266l.737-.056.639-.163.573-.2.59-.264,0-.076Zm-.249.157c-.014.012-.03.028-.045.039l.045-.071Z" transform="translate(-321.19 -647.799)" fill="#441417"/>
    <path id="Path_6120" data-name="Path 6120" d="M370.548,662.32v1.671h1.806V662.32h-1.806Z" transform="translate(-329.534 -644.882)" fill="#441417"/>
    <path id="Path_6121" data-name="Path 6121" d="M370.759,668.241v8.385h1.609v-8.385h-1.609Z" transform="translate(-329.646 -648.02)" fill="#441417"/>
    <path id="Path_6122" data-name="Path 6122" d="M378.049,661.41v11.6h1.612v-11.6h-1.612Z" transform="translate(-333.512 -644.4)" fill="#441417"/>
    <path id="Path_6123" data-name="Path 6123" d="M397.716,667.742a3.481,3.481,0,0,0-2.73,1.176,4.735,4.735,0,0,0-1.034,3.253,4.878,4.878,0,0,0,1,3.223,3.44,3.44,0,0,0,2.764,1.2,3.493,3.493,0,0,0,2.738-1.162,5.717,5.717,0,0,0,0-6.519A3.483,3.483,0,0,0,397.716,667.742Zm1.537,6.691a1.982,1.982,0,0,1-3.079-.014,3.821,3.821,0,0,1-.556-2.249,3.763,3.763,0,0,1,.554-2.269,1.8,1.8,0,0,1,1.544-.721,1.782,1.782,0,0,1,1.538.721,4.945,4.945,0,0,1,0,4.531Z" transform="translate(-341.946 -647.756)" fill="#441417"/>
    <path id="Path_6124" data-name="Path 6124" d="M414.53,661.239a2.749,2.749,0,0,0-2.116.813,3.333,3.333,0,0,0-.743,2.333v.145h-.934v1.4h.934v6.989h1.613v-6.989h2.234v-1.4h-2.272v-.156a2.007,2.007,0,0,1,.333-1.34,1.517,1.517,0,0,1,1.148-.358l.593.063.5.125.117.009h.128v-1.487l-.775-.1Z" transform="translate(-350.847 -644.309)" fill="#441417"/>
    <path id="Path_6125" data-name="Path 6125" d="M436.945,667.255l-1.105-.292-1.122-.278a1.951,1.951,0,0,1-.991-.562,1.448,1.448,0,0,1-.335-1.014,1.349,1.349,0,0,1,.571-1.136,2.459,2.459,0,0,1,1.544-.444,4.107,4.107,0,0,1,1.647.34,4.717,4.717,0,0,1,1.287.812l.04.032h.278v-1.934l-.071-.033a6.871,6.871,0,0,0-1.529-.529,7.947,7.947,0,0,0-1.744-.186,3.964,3.964,0,0,0-2.7.924,2.951,2.951,0,0,0-1.074,2.306,3.225,3.225,0,0,0,.2,1.162,2.637,2.637,0,0,0,.545.885,3.146,3.146,0,0,0,.815.618l1.035.381,1.047.253.909.241a1.811,1.811,0,0,1,.958.562,1.549,1.549,0,0,1,.3.979,1.489,1.489,0,0,1-.568,1.221,2.7,2.7,0,0,1-1.728.472,4.509,4.509,0,0,1-1.691-.356,5.049,5.049,0,0,1-1.577-1.012l-.038-.033h-.278v2.006l.074.036a10.1,10.1,0,0,0,1.571.605,7.424,7.424,0,0,0,2.042.247,4.769,4.769,0,0,0,1.692-.264,3.97,3.97,0,0,0,1.219-.749,3.058,3.058,0,0,0,.756-1.1,3.342,3.342,0,0,0,.267-1.3,2.908,2.908,0,0,0-.54-1.781A3.213,3.213,0,0,0,436.945,667.255Z" transform="translate(-361.893 -644.728)" fill="#441417"/>
    <path id="Path_6126" data-name="Path 6126" d="M454.746,668.456a2.834,2.834,0,0,0-1.085-.5,6.558,6.558,0,0,0-1.441-.135,7.76,7.76,0,0,0-1.431.135l-1.2.268.007.1v1.521h.2c.05-.008,1.314-.436,1.314-.436l1.095-.143.765.053a1.46,1.46,0,0,1,.595.2,1,1,0,0,1,.369.412,1.694,1.694,0,0,1,.131.731v.15c-.21.021-1.91.17-1.91.17a5.855,5.855,0,0,0-1.659.442,2.583,2.583,0,0,0-1.187.993,3.1,3.1,0,0,0-.172,2.591,2.529,2.529,0,0,0,.555.868,2.585,2.585,0,0,0,.84.562,2.622,2.622,0,0,0,1,.2,3.693,3.693,0,0,0,.993-.106l.726-.3.564-.368.248-.19v.733h1.612v-5.689a3.561,3.561,0,0,0-.226-1.341A2.223,2.223,0,0,0,454.746,668.456Zm-.673,5.765a5.149,5.149,0,0,1-.921.64,2.429,2.429,0,0,1-1.118.264,1.584,1.584,0,0,1-1.076-.323,1.233,1.233,0,0,1-.352-.958,1.136,1.136,0,0,1,.325-.87,2.044,2.044,0,0,1,.853-.484l1.187-.209,1.1-.105Z" transform="translate(-371.106 -647.799)" fill="#441417"/>
    <path id="Path_6127" data-name="Path 6127" d="M471.763,668.241v6.142a4.643,4.643,0,0,1-.977.653,2.351,2.351,0,0,1-1.016.27,1.809,1.809,0,0,1-.78-.132.938.938,0,0,1-.4-.408,2,2,0,0,1-.2-.7l-.04-1.062v-4.761h-1.614v5.412a4.672,4.672,0,0,0,.2,1.438,2.709,2.709,0,0,0,.576,1,2.183,2.183,0,0,0,.864.588,3.024,3.024,0,0,0,1.052.182,2.861,2.861,0,0,0,1.321-.3,5.5,5.5,0,0,0,1.023-.715v.783h1.614v-8.385h-1.614Z" transform="translate(-380.54 -648.02)" fill="#441417"/>
    <path id="Path_6128" data-name="Path 6128" d="M488.811,661.41v3.467l-.8-.347a3.906,3.906,0,0,0-1.1-.143,3.178,3.178,0,0,0-1.385.319,3.274,3.274,0,0,0-1.118.867,4.466,4.466,0,0,0-.792,1.406,5.717,5.717,0,0,0-.283,1.9,7.205,7.205,0,0,0,.218,1.855,4.166,4.166,0,0,0,.647,1.372,2.713,2.713,0,0,0,1.007.847,2.939,2.939,0,0,0,1.29.29l.756-.079.64-.225.566-.332s.2-.153.356-.285v.689h1.614v-11.6h-1.614Zm0,9.43a4.163,4.163,0,0,1-.958.611,2.529,2.529,0,0,1-1.042.235,1.464,1.464,0,0,1-1.367-.7,4.14,4.14,0,0,1-.446-2.134,3.592,3.592,0,0,1,.577-2.21,1.827,1.827,0,0,1,1.559-.74l.856.089s.705.253.821.3Z" transform="translate(-389.345 -644.399)" fill="#441417"/>
    <path id="Path_6129" data-name="Path 6129" d="M501.96,662.32v1.671h1.806V662.32H501.96Z" transform="translate(-399.224 -644.882)" fill="#441417"/>
    <path id="Path_6130" data-name="Path 6130" d="M502.172,668.241v8.385h1.611v-8.385h-1.611Z" transform="translate(-399.336 -648.02)" fill="#441417"/>
    <path id="Path_6131" data-name="Path 6131" d="M525.184,662.32l-.9-.2-1.044-.086a5.107,5.107,0,0,0-2.038.394,4.448,4.448,0,0,0-1.579,1.142,5.337,5.337,0,0,0-1.033,1.808,7.589,7.589,0,0,0-.353,2.418,7.807,7.807,0,0,0,.364,2.465,4.944,4.944,0,0,0,1.031,1.811,4.272,4.272,0,0,0,1.584,1.1,5.449,5.449,0,0,0,2,.363l1.076-.081.894-.238.786-.3.74-.352v-1.921h-.28l-.486.431-.676.448-.925.376a4.014,4.014,0,0,1-1.119.148,2.985,2.985,0,0,1-1.248-.264,2.8,2.8,0,0,1-1.021-.777,4.01,4.01,0,0,1-.711-1.318,5.969,5.969,0,0,1-.261-1.878,6.379,6.379,0,0,1,.248-1.85,3.766,3.766,0,0,1,.692-1.344,2.945,2.945,0,0,1,1.038-.807,3.01,3.01,0,0,1,1.263-.27,3.907,3.907,0,0,1,1.091.135l.88.362.708.473.518.447h.289V663l-.8-.4Zm1.28,8.435v.017c-.019.017-.039.043-.06.063Z" transform="translate(-407.858 -644.728)" fill="#441417"/>
    <path id="Path_6132" data-name="Path 6132" d="M542.359,664.386a2.951,2.951,0,0,0-1.315.307,5.507,5.507,0,0,0-1.04.713v-4h-1.6v11.6H540v-6.139a5.41,5.41,0,0,1,1-.666,2.231,2.231,0,0,1,1-.26,1.811,1.811,0,0,1,.769.135.952.952,0,0,1,.414.4,2.067,2.067,0,0,1,.194.729l.055,1.036v4.76h1.611V667.6a3.56,3.56,0,0,0-.706-2.372A2.5,2.5,0,0,0,542.359,664.386Z" transform="translate(-418.548 -644.399)" fill="#441417"/>
    <path id="Path_6133" data-name="Path 6133" d="M560.677,668.456a2.868,2.868,0,0,0-1.087-.5,6.584,6.584,0,0,0-1.447-.135,7.683,7.683,0,0,0-1.428.135l-1.2.268.009.1v1.521h.2c.052-.008,1.318-.436,1.318-.436l1.089-.143.767.053a1.465,1.465,0,0,1,.59.2.947.947,0,0,1,.369.412,1.73,1.73,0,0,1,.137.731v.15c-.209.021-1.911.17-1.911.17a5.844,5.844,0,0,0-1.663.442,2.6,2.6,0,0,0-1.187.993,2.889,2.889,0,0,0-.378,1.508,2.92,2.92,0,0,0,.212,1.084,2.583,2.583,0,0,0,.551.868,2.592,2.592,0,0,0,1.843.76,3.709,3.709,0,0,0,.992-.106l.724-.3.568-.368s.124-.1.25-.19v.733h1.609v-5.689a3.592,3.592,0,0,0-.229-1.341A2.193,2.193,0,0,0,560.677,668.456ZM560,674.221a5.065,5.065,0,0,1-.923.64,2.432,2.432,0,0,1-1.12.264,1.572,1.572,0,0,1-1.072-.323,1.219,1.219,0,0,1-.354-.958,1.127,1.127,0,0,1,.321-.87,2.12,2.12,0,0,1,.853-.484l1.186-.209,1.108-.105Z" transform="translate(-427.278 -647.799)" fill="#441417"/>
    <path id="Path_6134" data-name="Path 6134" d="M582.9,668.477a2.093,2.093,0,0,0-.8-.561,2.831,2.831,0,0,0-1-.173,2.592,2.592,0,0,0-1.344.375,5.488,5.488,0,0,0-1.108.958,2.133,2.133,0,0,0-.809-.984,2.6,2.6,0,0,0-1.342-.349,2.472,2.472,0,0,0-1.224.315,4.956,4.956,0,0,0-.88.69v-.77h-1.608v8.386h1.608v-6.142a4.886,4.886,0,0,1,.884-.663,1.755,1.755,0,0,1,.874-.26,1.48,1.48,0,0,1,.669.123.824.824,0,0,1,.361.378,2,2,0,0,1,.172.7l.036,1.029v4.835h1.619v-5.484l-.011-.409s-.009-.153-.016-.229a4.653,4.653,0,0,1,.928-.7,1.87,1.87,0,0,1,.852-.242,1.469,1.469,0,0,1,.667.123.837.837,0,0,1,.364.378,1.928,1.928,0,0,1,.167.7l.042,1.029v4.835h1.614v-5.484a4.691,4.691,0,0,0-.186-1.43A2.75,2.75,0,0,0,582.9,668.477Z" transform="translate(-436.784 -647.756)" fill="#441417"/>
    <path id="Path_6135" data-name="Path 6135" d="M603.456,664.386a3.179,3.179,0,0,0-1.435.32,5.311,5.311,0,0,0-.947.651V661.41h-1.608v11.6h1.5s.047-.211.073-.317c.213.1.808.381.808.381a3.713,3.713,0,0,0,1.179.169,3.13,3.13,0,0,0,2.535-1.264,5.163,5.163,0,0,0,1-3.3,5.294,5.294,0,0,0-.823-3.13A2.679,2.679,0,0,0,603.456,664.386Zm.861,6.678a1.864,1.864,0,0,1-1.555.7l-.854-.1-.833-.325v-4.527a4.209,4.209,0,0,1,.975-.616,2.565,2.565,0,0,1,1.083-.251,1.427,1.427,0,0,1,1.333.693,4.381,4.381,0,0,1,.429,2.154A3.643,3.643,0,0,1,604.316,671.064Z" transform="translate(-450.932 -644.399)" fill="#441417"/>
    <path id="Path_6136" data-name="Path 6136" d="M622.125,668.687a2.774,2.774,0,0,0-1.065-.714,3.954,3.954,0,0,0-1.389-.23,3.625,3.625,0,0,0-2.82,1.217,4.727,4.727,0,0,0-1.079,3.246,4.387,4.387,0,0,0,1.118,3.2A4.159,4.159,0,0,0,620,676.537l.847-.061.734-.17.652-.225.682-.269v-1.7h-.246l-.455.318-.615.317-.766.258-.863.1a2.513,2.513,0,0,1-1.9-.711,2.867,2.867,0,0,1-.668-1.96h5.661v-.865a5.17,5.17,0,0,0-.24-1.694A3.26,3.26,0,0,0,622.125,668.687Zm.539,5.547v.031l-.044.034Zm-5.245-3.1a2.756,2.756,0,0,1,.168-.742,2.133,2.133,0,0,1,.441-.678,2.257,2.257,0,0,1,.66-.453,2.294,2.294,0,0,1,.884-.154,2.254,2.254,0,0,1,.891.151,1.419,1.419,0,0,1,.568.43,1.785,1.785,0,0,1,.316.643s.086.614.109.8Z" transform="translate(-459.58 -647.756)" fill="#441417"/>
    <path id="Path_6137" data-name="Path 6137" d="M637.619,668.241a2.563,2.563,0,0,0-1.135.285,6.174,6.174,0,0,0-1.125.785v-1.071H633.75v8.385h1.609V670.8a3.463,3.463,0,0,1,.954-.658,2.592,2.592,0,0,1,1.051-.234l.4.013.3.047h.225V668.3l-.344-.051Z" transform="translate(-469.113 -648.02)" fill="#441417"/>
    <path id="Path_6138" data-name="Path 6138" d="M648.328,671.627l-.79-.177-.671-.156a1.96,1.96,0,0,1-.819-.381.88.88,0,0,1-.226-.673.815.815,0,0,1,.4-.752,2.008,2.008,0,0,1,1.069-.264,3.433,3.433,0,0,1,1.247.235,4.039,4.039,0,0,1,1.127.651l.036.029h.24v-1.673l-.068-.035A5.063,5.063,0,0,0,648.7,668a5.99,5.99,0,0,0-1.393-.171,3.472,3.472,0,0,0-2.283.721,2.486,2.486,0,0,0-.426,3.323,2.594,2.594,0,0,0,1.416.878l.784.185.676.151a1.948,1.948,0,0,1,.869.385.83.83,0,0,1,.224.643,1.008,1.008,0,0,1-.1.5l-.328.319-.5.175-.671.073-.828-.118-.747-.281-.6-.339-.436-.33-.048,0h-.2v1.743l1.268.5a5.408,5.408,0,0,0,1.557.222,4.458,4.458,0,0,0,1.421-.2,3.159,3.159,0,0,0,1.018-.574,2.246,2.246,0,0,0,.643-.848,2.532,2.532,0,0,0,.22-1.039,2.229,2.229,0,0,0-.484-1.507A2.678,2.678,0,0,0,648.328,671.627Z" transform="translate(-474.607 -647.799)" fill="#441417"/>
    <path id="Path_6139" data-name="Path 6139" d="M292.644,639.986h2.271a3.217,3.217,0,0,0,2.334-.851,2.9,2.9,0,0,0,.87-2.169v-4.439h-1.6v4.32a1.515,1.515,0,0,1-1.688,1.74H291.62v.006H291.1a1.589,1.589,0,0,1-1.431-1.6v-2.063a2.624,2.624,0,0,0-2.62-2.626h-1.206a2.622,2.622,0,0,0-2.618,2.626v2.439a2.619,2.619,0,0,0,2.618,2.62h1.206a2.615,2.615,0,0,0,1.9-.818,2.557,2.557,0,0,0,1.882.818h1.813Zm-4.345-2.953a1.5,1.5,0,0,1-1.5,1.5h-.69a1.507,1.507,0,0,1-1.508-1.5v-1.77a1.507,1.507,0,0,1,1.508-1.507h.69a1.505,1.505,0,0,1,1.5,1.507Z" transform="translate(-283.227 -628.972)" fill="#441417"/>
    <path id="Path_6140" data-name="Path 6140" d="M310.4,652.759a.9.9,0,0,0,.9.886.888.888,0,0,0,.874-.886.878.878,0,0,0-.874-.873A.893.893,0,0,0,310.4,652.759Z" transform="translate(-297.636 -639.352)" fill="#441417"/>
    <path id="Path_6141" data-name="Path 6141" d="M305.52,652.759a.881.881,0,1,0,1.762,0,.881.881,0,0,0-1.762,0Z" transform="translate(-295.049 -639.352)" fill="#441417"/>
    <path id="Path_6142" data-name="Path 6142" d="M325.387,635.233a2.6,2.6,0,0,0-.94-2.118,3.639,3.639,0,0,0-2.439-.8,3.556,3.556,0,0,0-2.3,1v1.846a2.567,2.567,0,0,1,2.3-1.486c1.178,0,1.776.563,1.776,1.673v3.243H319.1v1.4h6.287Z" transform="translate(-302.251 -628.979)" fill="#441417"/>
    <path id="Path_6143" data-name="Path 6143" d="M382.093,633.511v-7.728h-1.616v7.573A1.515,1.515,0,0,1,378.8,635.1H377.8v.032h-1.171V635.1H374.78v-5.284h-1.618V635.1h-3.411v-5.284h-1.624V635.1h-3.38v-5.284h-1.622V635.1h-2.01v.032h-3.889V635.1h-5.885v-3.191a1.615,1.615,0,0,1,1.638-1.711,1.768,1.768,0,0,1,1.4.734l1.194-1.091a3.342,3.342,0,0,0-2.405-1.009,3.405,3.405,0,0,0-2.545.96,3.35,3.35,0,0,0-.905,2.387V635.1h-1.942v.032H342.23c.017-.854.034-1.552.034-2.082,0-2.662-1.092-4-3.257-4a3.052,3.052,0,0,0-2.645,1.264,4.634,4.634,0,0,0-.75,2.731,3.44,3.44,0,0,0,.87,2.46,3.48,3.48,0,0,0,2.642,1.022h1.332a2.076,2.076,0,0,1-2,1.865,5.976,5.976,0,0,1-2.679-.6l.719,1.57a3.718,3.718,0,0,0,1.994.442,3.282,3.282,0,0,0,2.475-.988,4.04,4.04,0,0,0,1.109-2.291h36.81a3.21,3.21,0,0,0,2.334-.851A2.927,2.927,0,0,0,382.093,633.511Zm-41.466,1.621h-1.5c-1.261,0-1.894-.7-1.894-2.082,0-1.721.6-2.579,1.777-2.579a1.4,1.4,0,0,1,1.415.857,4.644,4.644,0,0,1,.221,1.721Z" transform="translate(-311.007 -625.518)" fill="#441417"/>
    <rect id="Rectangle_502" data-name="Rectangle 502" width="1.624" height="10.748" transform="translate(72.552 0.265)" fill="#441417"/>
    <path id="Path_6144" data-name="Path 6144" d="M453.849,639.606h6.117a3.932,3.932,0,0,0,2.27-.528,2.5,2.5,0,0,0,.869-2.152v-2.61a2.487,2.487,0,0,0-.772-1.861,3.7,3.7,0,0,0-2.642-.871c-2.053,0-3.295,1.076-3.295,2.732a3.106,3.106,0,0,0,.513,2,2.885,2.885,0,0,0,2.266.735h2.306a.985.985,0,0,1-.53,1.022,4.576,4.576,0,0,1-1.211.1h-5.669a1.486,1.486,0,0,1-1.684-1.674v-2.372h-1.6v2.544A2.838,2.838,0,0,0,453.849,639.606Zm5.683-3.925a2.459,2.459,0,0,1-1.3-.206,1.711,1.711,0,0,1-.239-1.106c0-.906.563-1.35,1.694-1.35,1.193,0,1.79.444,1.79,1.35v1.312Z" transform="translate(-372.083 -628.592)" fill="#441417"/>
    <path id="Path_6145" data-name="Path 6145" d="M468.746,627.053a.9.9,0,0,0,.9-.887.9.9,0,0,0-1.79,0A.9.9,0,0,0,468.746,627.053Z" transform="translate(-381.139 -625.259)" fill="#441417"/>
    <path id="Path_6146" data-name="Path 6146" d="M511.346,627.013a.9.9,0,1,0-.872-.887A.9.9,0,0,0,511.346,627.013Z" transform="translate(-403.739 -625.219)" fill="#441417"/>
    <path id="Path_6147" data-name="Path 6147" d="M497.765,636.531h1.912a3.225,3.225,0,0,0,2.338-.851,2.959,2.959,0,0,0,.87-2.169v-7.728h-1.62v7.573c0,1.163-.567,1.743-1.673,1.743h-1.006v.032h-2.32V635.1H492.58v-3.191a1.613,1.613,0,0,1,1.634-1.711,1.786,1.786,0,0,1,1.4.734l1.2-1.091a3.348,3.348,0,0,0-2.41-1.009,3.4,3.4,0,0,0-2.543.96,3.354,3.354,0,0,0-.9,2.387V635.1H489.01v.032h-2.288V635.1h-2.413v-6.028h-1.614v7a2.1,2.1,0,0,1-2.22,2.323,3.865,3.865,0,0,1-2.211-.65v1.6a4.842,4.842,0,0,0,2.211.46,3.548,3.548,0,0,0,3.822-3.279h13.467Z" transform="translate(-386.658 -625.518)" fill="#441417"/>
    <rect id="Rectangle_503" data-name="Rectangle 503" width="1.619" height="10.748" transform="translate(117.692 0.265)" fill="#441417"/>
    <path id="Path_6148" data-name="Path 6148" d="M620.776,652.759a.887.887,0,0,0,1.775,0,.887.887,0,0,0-1.775,0Z" transform="translate(-462.233 -639.352)" fill="#441417"/>
    <path id="Path_6149" data-name="Path 6149" d="M588.259,636.523h1.982a3.759,3.759,0,0,1,4.887,0,3,3,0,0,0,2.588-1.158,4.131,4.131,0,0,0,.7-2.495,4.239,4.239,0,0,0-.7-2.524,3.519,3.519,0,0,0-5.2,0,4.229,4.229,0,0,0-.7,2.524v.547a1.5,1.5,0,0,1-1.677,1.707H588.4v-.032H586.43v-.58a8.353,8.353,0,0,0-.687-3.809,3.7,3.7,0,0,0-3.583-1.879A5.308,5.308,0,0,0,578.4,630.5l1.166,1.076a3.5,3.5,0,0,1,2.59-1.315,2.191,2.191,0,0,1,2.254,1.435,8,8,0,0,1,.359,2.817v.613H576.25v-.032h-1.028a1.472,1.472,0,0,1-1.673-1.656v-7.668h-1.62v7.581a1.516,1.516,0,0,1-1.686,1.743h-1.279v.032H567.64v-.032H565.8V629.85h-1.62v5.242h-3.411V629.85h-1.623v5.242H555.73V629.85h-1.619v6.163c0,1.554-.969,2.321-2.934,2.321-2.394,0-3.311-1.041-3.311-3.7v-1.247H546.26A9.575,9.575,0,0,0,547,637.91q1.1,1.894,4.162,1.892,4.352,0,4.555-3.279h14.633a3.084,3.084,0,0,0,2.4-.919,3.157,3.157,0,0,0,2.374.919h13.138Zm6.869-5.937c1.1,0,1.672.768,1.672,2.284s-.569,2.271-1.672,2.271c-1.133,0-1.691-.748-1.691-2.271S594,630.586,595.129,630.586Z" transform="translate(-422.715 -625.51)" fill="#441417"/>
    <path id="Path_6150" data-name="Path 6150" d="M291.564,628.45a.9.9,0,0,0,.879-.886.884.884,0,0,0-.879-.871.874.874,0,0,0-.874.871A.891.891,0,0,0,291.564,628.45Z" transform="translate(-287.185 -626)" fill="#441417"/>
    <path id="Path_6151" data-name="Path 6151" d="M286.652,628.45a.909.909,0,0,0,.9-.886.895.895,0,0,0-1.789,0A.907.907,0,0,0,286.652,628.45Z" transform="translate(-284.575 -626)" fill="#441417"/>
  </g>
  <g id="Group_2481" data-name="Group 2481" transform="translate(0 0)">
    <path id="Path_6152" data-name="Path 6152" d="M230.286,545c.948-.286,1.867-.59,2.753-.924a28.89,28.89,0,0,0-2.879-3.416,8.619,8.619,0,0,0-.126,1.567c0,.428.022.9.073,1.432C230.151,544.084,230.214,544.536,230.286,545Z" transform="translate(-209.284 -524.261)" fill="url(#radial-gradient)"/>
    <path id="Path_6153" data-name="Path 6153" d="M237.208,541.483c1.48-.641,2.836-1.32,4.048-1.987a12.417,12.417,0,0,0-6.484-2.038,8.942,8.942,0,0,0-1.052.061A31.867,31.867,0,0,1,237.208,541.483Z" transform="translate(-211.238 -522.566)" fill="url(#radial-gradient-2)"/>
    <path id="Path_6154" data-name="Path 6154" d="M267.874,559.216c0,.064,0,.129,0,.193,1.085-.092,1.822-.1,2.1-.1.081,0,.124,0,.137,0,.135.026.246.052.344.079a14.607,14.607,0,0,0-1.527-10.113c-.958.392-2.064.849-3.286,1.344A17.577,17.577,0,0,1,267.874,559.216Z" transform="translate(-228.167 -528.828)" fill="url(#radial-gradient-3)"/>
    <path id="Path_6155" data-name="Path 6155" d="M223.248,544.344c-.058-.61-.085-1.163-.085-1.666,0-.386.016-.743.046-1.072a10.926,10.926,0,0,0-2.424,4.96c.92-.15,1.82-.332,2.693-.552C223.381,545.445,223.3,544.881,223.248,544.344Z" transform="translate(-204.379 -524.763)" fill="url(#radial-gradient-4)"/>
    <path id="Path_6156" data-name="Path 6156" d="M259.3,543.156c1.274-.492,2.4-.92,3.364-1.291a14.463,14.463,0,0,0-3.818-4.02h0a14.72,14.72,0,0,0-1.982-1.156c-.729.571-1.46,1.1-2.187,1.607A20.606,20.606,0,0,1,259.3,543.156Z" transform="translate(-222.352 -522.158)" fill="url(#radial-gradient-5)"/>
    <path id="Path_6157" data-name="Path 6157" d="M224.759,558.234a38.075,38.075,0,0,1-1.511-5.277c-1.093.292-2.118.524-3.054.7a15.682,15.682,0,0,0-.157,2.235,18.166,18.166,0,0,0,.484,4.107Q222.689,559.087,224.759,558.234Z" transform="translate(-203.982 -530.779)" fill="url(#radial-gradient-6)"/>
    <path id="Path_6158" data-name="Path 6158" d="M230.907,550.5a35.9,35.9,0,0,0,1.432,5.1c1.514-.622,2.976-1.214,4.376-1.777-.891-1.611-1.8-3.1-2.727-4.432C232.925,549.823,231.9,550.192,230.907,550.5Z" transform="translate(-209.747 -528.889)" fill="url(#radial-gradient-7)"/>
    <path id="Path_6159" data-name="Path 6159" d="M250.764,547a18.361,18.361,0,0,0-4.5-4.429,41.737,41.737,0,0,1-4.138,2.248c.979,1.321,1.973,2.8,2.963,4.421C247.152,548.413,249.059,547.664,250.764,547Z" transform="translate(-215.696 -525.274)" fill="url(#radial-gradient-8)"/>
    <path id="Path_6160" data-name="Path 6160" d="M247.144,536.308c.875-.527,1.64-1.024,2.274-1.462a14.5,14.5,0,0,0-8.186-1.186,13.883,13.883,0,0,1,2.14.628A16.873,16.873,0,0,1,247.144,536.308Z" transform="translate(-215.222 -520.471)" fill="url(#radial-gradient-9)"/>
    <path id="Path_6161" data-name="Path 6161" d="M234.705,562.532c.258.668.527,1.336.822,2a39.719,39.719,0,0,0,2.429,4.577,42.838,42.838,0,0,1,4.4-1.725c-.991-2.373-2.043-4.607-3.13-6.657C237.7,561.335,236.188,561.94,234.705,562.532Z" transform="translate(-211.761 -534.899)" fill="url(#radial-gradient-10)"/>
    <path id="Path_6162" data-name="Path 6162" d="M255.306,553.779a.36.36,0,0,0-.035-.051c-1.778.718-3.714,1.5-5.71,2.3,1.244,2.1,2.463,4.393,3.579,6.8a39.978,39.978,0,0,1,5.086-.945A18.325,18.325,0,0,0,255.306,553.779Z" transform="translate(-219.639 -531.188)" fill="url(#radial-gradient-11)"/>
    <path id="Path_6163" data-name="Path 6163" d="M215.022,547.615a14.278,14.278,0,0,1,.734-2.1,14.56,14.56,0,0,0-2.49,3.532c.493-.032.986-.073,1.471-.123C214.814,548.488,214.907,548.051,215.022,547.615Z" transform="translate(-200.391 -526.838)" fill="url(#radial-gradient-12)"/>
    <path id="Path_6164" data-name="Path 6164" d="M260.522,525.6c-1.475-.594-3.173-.966-4.815-1.438-17.921-5.151-35.426-10.721-53.123-15.892a56.939,56.939,0,0,0-10.075-2.5H190.67c-3.06.273-4.57,2.094-4.815,5.187v1.8c.471,3.495,1.313,6.894,2.1,10.263,3.917,16.879,7.513,33.687,11.359,50.625.712,3.141,1.424,6.818,2.316,10.079a19.535,19.535,0,0,0,1.728,4.452,4.283,4.283,0,0,0,3.638,2.573h.257c4.071-.587,6.616-3.053,8.349-6.069a64.446,64.446,0,0,0,4.191-9.952,74.406,74.406,0,0,0,1.437-14.557,46.991,46.991,0,0,0-1.886-14.081c-.784-2.43-1.645-4.768-2.556-7.007a42.705,42.705,0,0,0-4.314,1.564,58.792,58.792,0,0,0,4.286,5.827c.264.336.395.445.426.561-.006,0,.016.027-.044.07l-.042.022-.039-.029a34.272,34.272,0,0,1-6.076-5.792c-1.573.721-2.983,1.474-4.208,2.188a12.3,12.3,0,0,0,8.065,4.367v.153c-.222.015-.442.023-.662.023a13.107,13.107,0,0,1-8.609-3.813c-1.109.682-2.015,1.307-2.685,1.79a14.432,14.432,0,0,0,5.588,2.619l-.023.152a18.341,18.341,0,0,1-6.72-1.911l-.18.149h0l-.007.006-.1-.116.005,0h0c.043-.042.088-.079.132-.114a8.476,8.476,0,0,1-2.231-1.623,15.685,15.685,0,0,1-3.732-6.613,4.716,4.716,0,0,1-.528.176,1.6,1.6,0,0,1-.293.036c-.109,0-.222-.037-.225-.148.03-.237.442-.47.457-.5.147-.064.293-.128.44-.19a15.927,15.927,0,0,1-.382-3.465v-.041a16.079,16.079,0,0,1,.885-5.182c-.486-.094-.7-.2-.721-.412.045-.386.859-.631,1.166-.745a16.735,16.735,0,0,1,8.894-8.771,16.8,16.8,0,0,1,8.85-2.526,16.244,16.244,0,0,1,7.787,1.972c.209-.158.322-.254.322-.256l.1.118c-.087.077-.176.152-.264.225a16.605,16.605,0,0,1,1.452.907,15,15,0,0,1,4.527,4.991c1.217-.46,1.894-.709,1.916-.714h.055c.356,0,.528.043.552.221-.03.241-.4.392-.389.4-.093.072-.706.34-1.757.785a17.139,17.139,0,0,1,1.36,4.018,6.771,6.771,0,0,1,.124,1.349,16.27,16.27,0,0,1-1.325,5.876.241.241,0,0,1-.067.16,16.5,16.5,0,0,1-1.076,2.136l-.138-.07a14.276,14.276,0,0,0,.563-1.657,4.857,4.857,0,0,1-.581.213c-.055,0-.107,0-.16,0-.559,0-1.108.019-1.657.048a11.247,11.247,0,0,1-2.369,6.228l-.126-.09a10.963,10.963,0,0,0,1.5-5.8c0-.093,0-.186,0-.279a36.222,36.222,0,0,0-4.756.718,67.491,67.491,0,0,1,2.626,6.783,106.286,106.286,0,0,1,3.463,16.21,34.772,34.772,0,0,1,4.094-5.526A35.5,35.5,0,0,1,248.1,545.1c3.988-.967,8.076-1.4,11.324-3.091,3.088-1.613,5.644-3.944,6.4-8.02v-1.138C265.242,529.243,263.548,526.816,260.522,525.6Z" transform="translate(-185.855 -505.772)" fill="url(#radial-gradient-13)"/>
    <path id="Path_6165" data-name="Path 6165" d="M212.639,557.054a18.124,18.124,0,0,1,.1-1.912c-.7.1-1.325.163-1.862.208a14.281,14.281,0,0,0-1.019,5.252h-.077l.077,0c0,.031,0,.064,0,.1a14.429,14.429,0,0,0,.24,2.57q1.6-.689,3.158-1.341A20.028,20.028,0,0,1,212.639,557.054Z" transform="translate(-198.543 -531.937)" fill="url(#radial-gradient-14)"/>
    <path id="Path_6166" data-name="Path 6166" d="M214.009,571.3c-1.245.489-2.334.914-3.227,1.257a14.523,14.523,0,0,0,5.116,8.026c.855-.7,1.7-1.346,2.563-1.953a16.44,16.44,0,0,1-3.8-5.4C214.4,572.6,214.195,571.949,214.009,571.3Z" transform="translate(-199.074 -540.501)" fill="url(#radial-gradient-15)"/>
    <path id="Path_6167" data-name="Path 6167" d="M225.9,566.1c-1.537.612-3.007,1.194-4.358,1.729a19.533,19.533,0,0,0,.645,1.923,18.918,18.918,0,0,0,3.165,5.311,42.6,42.6,0,0,1,4.105-2.374,22.874,22.874,0,0,1-2.7-4.512C226.446,567.482,226.166,566.792,225.9,566.1Z" transform="translate(-204.78 -537.745)" fill="url(#radial-gradient-16)"/>
  </g>
  <path id="Path_6168" data-name="Path 6168" d="M239.89,536.481h-.055c-.023,0-.7.253-1.916.714a15,15,0,0,0-4.527-4.992,16.7,16.7,0,0,0-1.452-.907c.089-.073.177-.148.264-.225l-.1-.117s-.113.1-.322.256a16.245,16.245,0,0,0-7.786-1.972,16.8,16.8,0,0,0-8.85,2.526,16.736,16.736,0,0,0-8.894,8.771c-.307.114-1.121.359-1.166.745.019.21.235.317.721.412a16.08,16.08,0,0,0-.885,5.181v.041a15.926,15.926,0,0,0,.382,3.465l-.44.19c-.015.026-.427.26-.457.5,0,.112.116.149.225.149a1.611,1.611,0,0,0,.293-.036,4.686,4.686,0,0,0,.528-.176,15.687,15.687,0,0,0,3.732,6.613,8.482,8.482,0,0,0,2.231,1.623c-.044.035-.088.072-.132.114h0l-.005,0,.1.115.007-.005v0l.18-.148a18.341,18.341,0,0,0,6.72,1.911l.023-.152a14.432,14.432,0,0,1-5.588-2.62c.67-.484,1.576-1.108,2.685-1.79a13.108,13.108,0,0,0,8.609,3.813c.22,0,.441-.008.662-.023V560.3a12.294,12.294,0,0,1-8.065-4.367c1.224-.715,2.635-1.467,4.208-2.188a34.287,34.287,0,0,0,6.076,5.792l.039.029.042-.022c.06-.043.038-.071.044-.071-.031-.116-.162-.224-.426-.561a58.74,58.74,0,0,1-4.286-5.827,42.7,42.7,0,0,1,4.314-1.564c.91,2.239,1.771,4.577,2.556,7.007a46.99,46.99,0,0,1,1.886,14.081,74.409,74.409,0,0,1-1.437,14.557c-.019.091-.039.186-.057.273l.147.042a76.7,76.7,0,0,1,5.99-13.439l.013-.022,0-.028c-.013-.088-.026-.176-.039-.265a106.3,106.3,0,0,0-3.463-16.21,67.481,67.481,0,0,0-2.626-6.783,36.223,36.223,0,0,1,4.756-.718c0,.093,0,.186,0,.279a10.962,10.962,0,0,1-1.5,5.8l.126.09a11.248,11.248,0,0,0,2.369-6.228c.549-.029,1.1-.048,1.657-.048.053,0,.105,0,.16,0a4.838,4.838,0,0,0,.581-.213,14.286,14.286,0,0,1-.563,1.657l.138.07a16.472,16.472,0,0,0,1.076-2.136.241.241,0,0,0,.067-.16,16.271,16.271,0,0,0,1.326-5.876,6.766,6.766,0,0,0-.124-1.349,17.142,17.142,0,0,0-1.36-4.018c1.05-.445,1.663-.713,1.757-.785-.01-.009.359-.159.389-.4C240.418,536.524,240.246,536.486,239.89,536.481Zm-7.7-2.586h0A14.458,14.458,0,0,1,236,537.916c-.963.371-2.091.8-3.364,1.291a20.606,20.606,0,0,0-4.621-4.859c.727-.5,1.457-1.036,2.187-1.608A14.7,14.7,0,0,1,232.185,533.9Zm-10.063,3.856a41.767,41.767,0,0,0,4.137-2.248,18.358,18.358,0,0,1,4.5,4.429c-1.7.666-3.613,1.415-5.676,2.24C224.095,540.552,223.1,539.073,222.122,537.752Zm.539,5.39c-1.4.563-2.862,1.155-4.376,1.777a35.906,35.906,0,0,1-1.432-5.1c.988-.312,2.018-.681,3.081-1.113C220.856,540.043,221.769,541.531,222.66,543.142Zm1.142-11.9a14.51,14.51,0,0,1,6.086,1.339c-.635.438-1.4.934-2.274,1.462a16.88,16.88,0,0,0-3.771-2.02,13.873,13.873,0,0,0-2.14-.628A14.475,14.475,0,0,1,223.8,531.245Zm-4.577,1.858a12.417,12.417,0,0,1,6.485,2.037c-1.212.667-2.568,1.346-4.048,1.987a31.866,31.866,0,0,0-3.488-3.963A9.007,9.007,0,0,1,219.226,533.1Zm-2.657,1.5a28.893,28.893,0,0,1,2.879,3.416c-.885.334-1.805.638-2.753.924-.072-.461-.135-.914-.179-1.341-.051-.527-.073-1-.073-1.432A8.615,8.615,0,0,1,216.569,534.606Zm-2.047.446c-.03.329-.046.686-.046,1.072,0,.5.027,1.056.085,1.666.053.536.133,1.1.23,1.669-.873.22-1.773.4-2.693.552A10.926,10.926,0,0,1,214.522,535.051Zm-2.618,6.034c.936-.175,1.961-.407,3.054-.7a38.1,38.1,0,0,0,1.511,5.277q-2.066.855-4.238,1.765a18.163,18.163,0,0,1-.484-4.107A15.693,15.693,0,0,1,211.9,541.086Zm-.847-4.195a14.275,14.275,0,0,0-.734,2.095c-.115.436-.208.873-.285,1.314-.485.051-.978.091-1.471.123A14.56,14.56,0,0,1,211.057,536.891Zm-4.051,10.083c0-.034,0-.067,0-.1l-.077,0h.077a14.277,14.277,0,0,1,1.019-5.252c.537-.044,1.162-.109,1.862-.208a18.118,18.118,0,0,0-.1,1.912,20.024,20.024,0,0,0,.617,4.877q-1.561.652-3.158,1.341A14.426,14.426,0,0,1,207.006,546.974Zm5.511,11.318a14.523,14.523,0,0,1-5.116-8.027c.893-.343,1.982-.768,3.227-1.257.186.648.4,1.295.648,1.93a16.442,16.442,0,0,0,3.8,5.4C214.221,556.946,213.372,557.591,212.517,558.292Zm3.748-2.764a18.921,18.921,0,0,1-3.165-5.311,19.56,19.56,0,0,1-.645-1.923c1.351-.536,2.821-1.117,4.358-1.73.266.692.546,1.381.852,2.077a22.87,22.87,0,0,0,2.7,4.513A42.541,42.541,0,0,0,216.264,555.528Zm5.624-3.106a39.735,39.735,0,0,1-2.429-4.578c-.3-.668-.564-1.336-.822-2,1.483-.592,3-1.2,4.517-1.8,1.087,2.049,2.139,4.284,3.13,6.657A42.819,42.819,0,0,0,221.888,552.422Zm7.305-2.573c-1.116-2.407-2.334-4.7-3.579-6.8,2-.8,3.932-1.583,5.71-2.3a.363.363,0,0,1,.035.051,18.327,18.327,0,0,1,2.92,8.1A40.02,40.02,0,0,0,229.193,549.849Zm8.788-1.081c-.1-.027-.208-.052-.344-.078-.013,0-.056,0-.137,0-.28,0-1.018.01-2.1.1,0-.064,0-.129,0-.193a17.575,17.575,0,0,0-2.232-8.6c1.223-.5,2.328-.952,3.286-1.344a14.6,14.6,0,0,1,1.527,10.113Z" transform="translate(-195.692 -518.209)" fill="#fff"/>
</svg>
